HIERARCHY
ROOT ui
{
	 OFFSET 0 0 0
	 CHANNELS 3 XPosition YPosition Z Position
	 EndSite
	 {
	 OFFSET 0 -1 0
	 }
}
ROOT li
{
	 OFFSET 0 0 0
	 CHANNELS 3 XPosition YPosition Z Position
	 EndSite
	 {
	 OFFSET 0 -1 0
	 }
}
ROOT ul
{
	 OFFSET 0 0 0
	 CHANNELS 3 XPosition YPosition Z Position
	 EndSite
	 {
	 OFFSET 0 -1 0
	 }
}
ROOT ll
{
	 OFFSET 0 0 0
	 CHANNELS 3 XPosition YPosition Z Position
	 EndSite
	 {
	 OFFSET 0 -1 0
	 }
}
ROOT tt
{
	 OFFSET 0 0 0
	 CHANNELS 3 XPosition YPosition Z Position
	 EndSite
	 {
	 OFFSET 0 -1 0
	 }
}
ROOT tb
{
	 OFFSET 0 0 0
	 CHANNELS 3 XPosition YPosition Z Position
	 EndSite
	 {
	 OFFSET 0 -1 0
	 }
}
ROOT td
{
	 OFFSET 0 0 0
	 CHANNELS 3 XPosition YPosition Z Position
	 EndSite
	 {
	 OFFSET 0 -1 0
	 }
}
ROOT v
{
	 OFFSET 0 0 0
	 CHANNELS 3 XPosition YPosition Z Position
	 EndSite
	 {
	 OFFSET 0 -1 0
	 }
}
ROOT bn
{
	 OFFSET 0 0 0
	 CHANNELS 3 XPosition YPosition Z Position
	 EndSite
	 {
	 OFFSET 0 -1 0
	 }
}
MOTION
Frames: 24
Frame Time: 0.002
-4.1270598769187927E-4	0.00486178207397461	0		0.5400119018554688	-2.604759033203125	0		-0.9834542846679688	-0.06472452545166016	0		-0.5714136352539062	-2.70159521484375	0		2.378780029296875	-1.9017958984375	0		3.616870361328125	-1.0246162109375	0		4.7646787109375	-0.38722628784179686	0		5.92450341796875	0.4710201416015625	0		-0.23195822143554687	5.8265654296875	0		
-0.0036265931129455566	0.0020401859283447265	0		0.5636924438476563	-2.609965576171875	0		-1.007627197265625	-0.06423059844970704	0		-0.6008130493164062	-2.7120439453125	0		2.331651611328125	-1.89408544921875	0		3.6174208984375	-1.042595947265625	0		4.76628857421875	-0.4022533874511719	0		5.92434375	0.4709853515625	0		-0.3662372436523437	5.80754443359375	0		
0.00117563796043396	-0.002894623041152954	0		0.5224851684570313	-2.61028515625	0		-1.0706009521484374	-0.05220844268798828	0		-0.5660712280273438	-2.716374267578125	0		2.3664150390625	-1.898492919921875	0		3.6151962890625	-1.047530029296875	0		4.772025390625	-0.411326904296875	0		5.92833642578125	0.4789072265625	0		-0.3369419860839844	5.82728759765625	0		
-8.007479906082153E-4	0.005261892795562744	0		0.542488525390625	-2.59944287109375	0		-1.0706884765625	-0.05205422210693359	0		-0.6371166381835938	-2.70825732421875	0		2.34330126953125	-1.897101318359375	0		3.60821044921875	-1.0383873291015624	0		4.75915087890625	-0.39512875366210937	0		5.93337060546875	0.4868326110839844	0		-0.335909423828125	5.82641162109375	0		
0.004084386825561523	3.2047200202941893E-4	0		0.5423950805664063	-2.599325927734375	0		-1.0038515625	-0.060828113555908205	0		-0.5673424072265625	-2.718080322265625	0		2.366204833984375	-1.8983336181640624	0		3.624951416015625	-1.05255908203125	0		4.77187646484375	-0.4112664489746094	0		5.92822412109375	0.4789201049804688	0		-0.369913818359375	5.82201220703125	0		
0.0010361599922180176	-0.002514194965362549	0		0.5652559204101563	-2.60652490234375	0		-1.082879638671875	-0.06160408020019531	0		-0.643336181640625	-2.71390380859375	0		2.32130126953125	-1.888621826171875	0		3.6249306640625	-1.0524818115234376	0		4.75778271484375	-0.41701080322265627	0		5.92822314453125	0.47896768188476563	0		-0.2044764862060547	5.84786767578125	0		
0.0010649089813232421	-0.0023935229778289796	0		0.5372703857421876	-2.6060224609375	0		-1.0078721313476562	-0.06350881576538087	0		-0.59823291015625	-2.707399169921875	0		2.362107421875	-1.904079345703125	0		3.612953857421875	-1.0522196044921874	0		4.7647255859375	-0.4230168762207031	0		5.92414501953125	0.4711055908203125	0		-0.23169621276855468	5.82736376953125	0		
0.0011267290115356445	-0.002275789976119995	0		0.5492349243164063	-2.6130693359375	0		-1.0827894287109374	-0.061358715057373045	0		-0.6463177490234375	-2.71761962890625	0		2.3272138671875	-1.900479736328125	0		3.596975830078125	-1.0548809814453124	0		4.76553955078125	-0.4409107971191406	0		5.92831689453125	0.47916802978515627	0		-0.335652587890625	5.8269130859375	0		
0.004259307861328125	7.981399893760681E-4	0		0.554438720703125	-2.606019775390625	0		-0.9955818481445312	-0.05344808959960937	0		-0.5712575073242188	-2.721539794921875	0		2.36431396484375	-1.90085888671875	0		3.64902783203125	-1.0584581298828124	0		4.779701171875	-0.43595849609375	0		5.9335146484375	0.48725119018554686	0		-0.3677046813964844	5.8194677734375	0		
-5.539299845695496E-4	0.005980673789978027	0		0.5706682739257812	-2.60011962890625	0		-1.0145306396484375	-0.05808402252197266	0		-0.6199654541015625	-2.710759765625	0		2.35453759765625	-1.89457958984375	0		3.6042998046875	-1.0476827392578125	0		4.7739482421875	-0.4267057800292969	0		5.93362646484375	0.48743600463867187	0		-0.36483538818359373	5.80653759765625	0		
0.0014752320051193237	-0.0019323940277099609	0		0.5677976684570313	-2.60395458984375	0		-1.0184448852539063	-0.061932514190673825	0		-0.5780306396484375	-2.729231689453125	0		2.3338212890625	-1.8861378173828125	0		3.618208740234375	-1.0656976318359375	0		4.77484765625	-0.44452203369140625	0		5.92453857421875	0.47177679443359377	0		-0.3364964904785156	5.82825830078125	0		
0.0016317579746246338	-0.0018189699649810791	0		0.54001513671875	-2.603444580078125	0		-1.0932662353515625	-0.05981382369995117	0		-0.5917157592773438	-2.72193994140625	0		2.33402001953125	-1.88597216796875	0		3.60845849609375	-1.0603665771484374	0		4.77297314453125	-0.4472739562988281	0		5.9246845703125	0.47202294921875	0		-0.23146678161621093	5.8279248046875	0		
0.0018005789518356324	-0.0017055649757385255	0		0.5422962646484375	-2.600343994140625	0		-1.0181165161132812	-0.061756553649902346	0		-0.5816236572265625	-2.732978759765625	0		2.33119970703125	-1.8887532958984374	0		3.651433349609375	-1.076740966796875	0		4.773154296875	-0.4470295104980469	0		5.92894970703125	0.4802435607910156	0		-0.3637740783691406	5.80583984375	0		
0.005017052173614502	0.0013671079874038696	0		0.5275020751953124	-2.604007568359375	0		-1.0888638916015625	-0.05570661544799805	0		-0.6152890014648438	-2.727419921875	0		2.334476806640625	-1.8856060791015625	0		3.628959716796875	-1.0531983642578124	0		4.77334423828125	-0.4467628479003906	0		5.93421875	0.4884782409667969	0		-0.20321217346191406	5.84675390625	0		
0.005193721771240234	0.0014823260307312012	0		0.5698084716796875	-2.60144580078125	0		-1.0177598876953124	-0.061596511840820316	0		-0.5810863647460938	-2.7327890625	0		2.366622314453125	-1.8928428955078125	0		3.649035888671875	-1.0632254638671874	0		4.7845224609375	-0.44762750244140626	0		5.9343779296875	0.4888045654296875	0		-0.33551730346679687	5.8276611328125	0		
0.002323930025100708	-0.0013595930337905885	0		0.5332166748046875	-2.59080615234375	0		-1.021627197265625	-0.0644635009765625	0		-0.5937161865234375	-2.725518310546875	0		2.360742919921875	-1.9015543212890624	0		3.6652861328125	-1.060188232421875	0		4.78162890625	-0.45328857421875	0		5.929421875	0.4812142639160156	0		-0.3638628540039063	5.8061474609375	0		
0.0024807050228118897	-0.0012402379512786866	0		0.593237060546875	-2.60847705078125	0		-1.0354937744140624	-0.0661937026977539	0		-0.5856316528320312	-2.738529052734375	0		2.3510546875	-1.895209716796875	0		3.633621826171875	-1.04949609375	0		4.7918017578125	-0.45312127685546877	0		5.9254521484375	0.4736158447265625	0		-0.36491522216796873	5.80726611328125	0		
-0.07436360168457032	9.216129779815674E-4	0		0.5285299072265625	-2.603455322265625	0		-1.0294241943359375	-0.07119078826904297	0		-0.5853938598632813	-2.7384287109375	0		2.359138671875	-1.9041064453125	0		3.642741455078125	-1.0533587646484375	0		4.78503564453125	-0.4467254333496094	0		5.939419921875	0.4627722473144531	0		-0.33473049926757814	5.8269677734375	0		
0.005766081809997559	0.0019675660133361816	0		0.5826734008789063	-2.608037353515625	0		-1.01024609375	-0.0663575210571289	0		-0.64997900390625	-2.722449462890625	0		2.361356201171875	-1.9009241943359374	0		3.6709267578125	-1.0504810791015624	0		4.78924169921875	-0.4404844055175781	0		5.94362109375	0.471053955078125	0		-0.33386724853515626	5.82406884765625	0		
0.005853819847106934	0.0020980560779571534	0		0.556887939453125	-2.604539306640625	0		-1.03515380859375	-0.0659239730834961	0		-0.581957275390625	-2.734252685546875	0		2.386530029296875	-1.8990537109375	0		3.652412841796875	-1.0229795532226562	0		4.79934326171875	-0.44033395385742186	0		5.93494970703125	0.4904951477050781	0		-0.36900445556640626	5.82165869140625	0		
0.0028859000205993654	-7.264639735221863E-4	0		0.5970432739257813	-2.603925048828125	0		-1.0391331787109375	-0.06976435089111328	0		-0.583834716796875	-2.736107177734375	0		2.374697021484375	-1.89569091796875	0		3.642353759765625	-1.0346065673828124	0		4.799427734375	-0.4400638122558594	0		5.92676708984375	0.47290615844726563	0		-0.35016522216796875	5.81652880859375	0		
0.002948831081390381	-5.870919823646546E-4	0		0.5452521362304688	-2.597076416015625	0		-1.0431083984375	-0.07259558868408203	0		-0.5847344360351563	-2.737968017578125	0		2.370724365234375	-1.9014420166015624	0		3.671465087890625	-1.032770263671875	0		4.8115263671875	-0.4379728698730469	0		5.925845703125	0.475197509765625	0		-0.3643711242675781	5.80684814453125	0		
-3.1603001058101654E-5	-0.0034029560089111326	0		0.5552376098632813	-2.6060556640625	0		-1.0430477294921876	-0.07247084808349609	0		-0.6544986572265625	-2.727900390625	0		2.372858154296875	-1.8982821044921876	0		3.6585576171875	-1.0313861083984375	0		4.80364794921875	-0.433635009765625	0		5.9278564453125	0.472422607421875	0		-0.36441741943359374	5.8069853515625	0		
0.006108841896057129	0.002664731979370117	0		0.5495057983398437	-2.5928212890625	0		-1.0429859619140625	-0.07233584594726562	0		-0.57944970703125	-2.731761474609375	0		2.372943359375	-1.898103515625	0		3.661911865234375	-1.01023291015625	0		4.82469921875	-0.43470559692382815	0		5.93980322265625	0.4644871520996094	0		-0.33516632080078124	5.826740234375	0		
